<svg width="100" height="100" viewBox="0 0 100 100" fill="none" xmlns="http://www.w3.org/2000/svg">
<g clip-path="url(#clip0_137_255)">
<path d="M50.5 87C71.2107 87 88 70.2107 88 49.5C88 28.7893 71.2107 12 50.5 12C29.7893 12 13 28.7893 13 49.5C13 70.2107 29.7893 87 50.5 87Z" fill="#F54343"/>
<path d="M53.5042 50.4012L62.9647 40.9626C63.379 40.5483 63.6118 39.9864 63.6118 39.4005C63.6118 38.8146 63.379 38.2527 62.9647 37.8384C62.5504 37.4242 61.9885 37.1914 61.4027 37.1914C60.8168 37.1914 60.2549 37.4242 59.8406 37.8384L50.402 47.299L40.9635 37.8384C40.5492 37.4242 39.9873 37.1914 39.4014 37.1914C38.8155 37.1914 38.2536 37.4242 37.8393 37.8384C37.425 38.2527 37.1922 38.8146 37.1922 39.4005C37.1922 39.9864 37.425 40.5483 37.8393 40.9626L47.2998 50.4012L37.8393 59.8397C37.6331 60.0443 37.4694 60.2876 37.3577 60.5557C37.246 60.8238 37.1885 61.1114 37.1885 61.4018C37.1885 61.6923 37.246 61.9798 37.3577 62.2479C37.4694 62.5161 37.6331 62.7594 37.8393 62.9639C38.0438 63.1701 38.2871 63.3338 38.5552 63.4455C38.8234 63.5572 39.1109 63.6147 39.4014 63.6147C39.6918 63.6147 39.9794 63.5572 40.2475 63.4455C40.5156 63.3338 40.7589 63.1701 40.9635 62.9639L50.402 53.5034L59.8406 62.9639C60.0451 63.1701 60.2884 63.3338 60.5565 63.4455C60.8246 63.5572 61.1122 63.6147 61.4027 63.6147C61.6931 63.6147 61.9807 63.5572 62.2488 63.4455C62.5169 63.3338 62.7602 63.1701 62.9647 62.9639C63.171 62.7594 63.3346 62.5161 63.4463 62.2479C63.558 61.9798 63.6155 61.6923 63.6155 61.4018C63.6155 61.1114 63.558 60.8238 63.4463 60.5557C63.3346 60.2876 63.171 60.0443 62.9647 59.8397L53.5042 50.4012Z" fill="white" stroke="white" stroke-width="2" stroke-linecap="round" stroke-linejoin="round"/>
</g>
<defs>
<clipPath id="clip0_137_255">
<rect width="100" height="100" fill="white"/>
</clipPath>
</defs>
</svg>
