<svg width="120" height="120" viewBox="0 0 120 120" fill="none" xmlns="http://www.w3.org/2000/svg">
<mask id="mask0_1797_617" style="mask-type:luminance" maskUnits="userSpaceOnUse" x="0" y="0" width="120" height="120">
<path d="M120 0H0V120H120V0Z" fill="white"/>
</mask>
<g mask="url(#mask0_1797_617)">
<path d="M53.6191 7.66406C56.9195 3.63264 63.0847 3.63277 66.3857 7.66406L71.3447 13.7217C71.8206 14.3028 72.6146 14.5153 73.3174 14.25L80.6416 11.4844C85.5161 9.64348 90.8547 12.7256 91.6973 17.8672L92.9639 25.5928C93.0851 26.3341 93.6662 26.9155 94.4072 27.0371L102.133 28.3027C107.275 29.1455 110.358 34.485 108.517 39.3594L105.75 46.6826C105.485 47.3853 105.697 48.1794 106.278 48.6553L112.336 53.6143C116.368 56.9152 116.368 63.0809 112.336 66.3818L106.278 71.3408C105.698 71.8167 105.485 72.61 105.75 73.3125V73.3135L108.517 80.6367C110.357 85.5108 107.275 90.8505 102.133 91.6934L94.4072 92.959C93.6662 93.0808 93.085 93.6618 92.9639 94.4033L91.6973 102.128C90.8549 107.27 85.5161 110.352 80.6416 108.512L73.3174 105.746V105.745C72.615 105.48 71.8208 105.693 71.3447 106.274L66.3857 112.331C63.0847 116.363 56.9195 116.363 53.6191 112.331L48.6602 106.274C48.1841 105.692 47.3899 105.48 46.6875 105.745V105.746L39.3643 108.512C34.4899 110.353 29.1504 107.27 28.3076 102.128L27.042 94.4033C26.928 93.7082 26.4095 93.154 25.7344 92.9873L25.5977 92.959L17.8721 91.6934C12.7302 90.8503 9.64824 85.5107 11.4893 80.6367L14.2549 73.3135C14.5203 72.6107 14.3076 71.8168 13.7266 71.3408L7.66895 66.3818C3.63737 63.0809 3.63749 56.9152 7.66895 53.6143L13.7266 48.6553C14.3078 48.1794 14.5203 47.3854 14.2549 46.6826L11.4893 39.3594C9.64817 34.4851 12.7303 29.1456 17.8721 28.3027L25.5977 27.0371C26.339 26.9156 26.9205 26.3341 27.042 25.5928L28.3076 17.8672C29.1505 12.7254 34.49 9.64333 39.3643 11.4844L46.6875 14.25C47.3903 14.5155 48.1843 14.3029 48.6602 13.7217L53.6191 7.66406Z" fill="#FF6F00" fill-opacity="0.5" stroke="#FFEDE0"/>
<path fill-rule="evenodd" clip-rule="evenodd" d="M90.1515 39.8483C91.616 41.3128 91.616 43.6872 90.1515 45.1516L55.1515 80.1515C54.4485 80.855 53.4945 81.25 52.5 81.25C51.5055 81.25 50.5515 80.855 49.8483 80.1515L29.8483 60.1515C28.3839 58.687 28.3839 56.313 29.8483 54.8485C31.3128 53.384 33.6872 53.384 35.1516 54.8485L52.5 72.1965L84.8485 39.8483C86.313 38.3839 88.687 38.3839 90.1515 39.8483Z" fill="#ECEFF1"/>
<path fill-rule="evenodd" clip-rule="evenodd" d="M60 4.14062V115.855C57.491 115.854 54.982 114.785 53.2325 112.648L48.2731 106.591C47.9332 106.175 47.3662 106.024 46.8643 106.213L39.5408 108.979C34.371 110.932 28.7081 107.662 27.8143 102.209L26.5481 94.4839C26.4613 93.9544 26.0463 93.5394 25.5167 93.4524L17.7914 92.1864C12.3379 91.2924 9.06845 85.6294 11.0211 80.4599L13.7872 73.1364C13.9768 72.6344 13.8249 72.0674 13.4097 71.7274L7.3525 66.7684C3.07652 63.2674 3.07651 56.7284 7.3525 53.2274L13.4097 48.2683C13.8249 47.9284 13.9768 47.3614 13.7872 46.8594L11.0211 39.536C9.0684 34.3662 12.3379 28.7033 17.7914 27.8094L25.5167 26.5433C26.0463 26.4565 26.4613 26.0414 26.5481 25.5119L27.8143 17.7866C28.7081 12.333 34.3711 9.06357 39.5408 11.0162L46.8643 13.7824C47.3662 13.972 47.9332 13.82 48.2731 13.4049L53.2325 7.34761C54.982 5.21036 57.491 4.14139 60 4.14062Z" fill="#E47830"/>
<path fill-rule="evenodd" clip-rule="evenodd" d="M60 64.6964V75.3034L55.1515 80.1514C54.4485 80.8549 53.4945 81.2499 52.5 81.2499C51.5055 81.2499 50.5515 80.8549 49.8483 80.1514L29.8483 60.1514C28.3839 58.6869 28.3839 56.3129 29.8483 54.8484C31.3128 53.3839 33.6872 53.3839 35.1516 54.8484L52.5 72.1964L60 64.6964Z" fill="#D4D6D8"/>
</g>
</svg>
