<svg width="101" height="100" viewBox="0 0 101 100" fill="none" xmlns="http://www.w3.org/2000/svg">
<circle cx="50.3453" cy="50" r="50" fill="white"/>
<circle cx="51" cy="50" r="40" fill="#C4FFD3"/>
<path d="M50.7266 18C33.2007 18 19 32.2007 19 49.7266C19 67.2525 33.2007 81.4532 50.7266 81.4532C68.2525 81.4532 82.4532 67.2525 82.4532 49.7266C82.4532 32.2007 68.2525 18 50.7266 18ZM45.8303 60.9682C45.4643 61.3343 44.9457 61.6394 44.4881 61.6394C44.0305 61.6394 43.5119 61.319 43.1305 60.953L34.5888 52.4112L37.3038 49.6961L44.5033 56.8956L63.5393 37.7224L66.2086 40.4832L45.8303 60.9682Z" fill="#0DC143"/>
</svg>
