<svg width="20" height="20" viewBox="0 0 20 20" fill="none" xmlns="http://www.w3.org/2000/svg">
<path d="M14.4999 2C14.3673 2 14.2401 2.05268 14.1463 2.14645C14.0526 2.24021 13.9999 2.36739 13.9999 2.5C13.9999 2.63261 14.0526 2.75979 14.1463 2.85355C14.2401 2.94732 14.3673 3 14.4999 3H16.2929L11.4999 7.793L8.8539 5.146C8.80745 5.09944 8.75228 5.06249 8.69153 5.03729C8.63079 5.01208 8.56567 4.99911 8.4999 4.99911C8.43413 4.99911 8.36901 5.01208 8.30827 5.03729C8.24752 5.06249 8.19234 5.09944 8.1459 5.146L3.1459 10.146C3.05201 10.2399 2.99927 10.3672 2.99927 10.5C2.99927 10.6328 3.05201 10.7601 3.1459 10.854C3.23979 10.9479 3.36712 11.0006 3.4999 11.0006C3.63267 11.0006 3.76001 10.9479 3.8539 10.854L8.4999 6.207L11.1459 8.854C11.1923 8.90056 11.2475 8.93751 11.3083 8.96271C11.369 8.98792 11.4341 9.00089 11.4999 9.00089C11.5657 9.00089 11.6308 8.98792 11.6915 8.96271C11.7523 8.93751 11.8075 8.90056 11.8539 8.854L16.9999 3.707V5.5C16.9999 5.63261 17.0526 5.75979 17.1463 5.85355C17.2401 5.94732 17.3673 6 17.4999 6C17.6325 6 17.7597 5.94732 17.8535 5.85355C17.9472 5.75979 17.9999 5.63261 17.9999 5.5V2.5C17.9999 2.36739 17.9472 2.24021 17.8535 2.14645C17.7597 2.05268 17.6325 2 17.4999 2H14.4999ZM15.4999 9C15.3673 9 15.2401 9.05268 15.1463 9.14645C15.0526 9.24021 14.9999 9.36739 14.9999 9.5V17.5C14.9999 17.6326 15.0526 17.7598 15.1463 17.8536C15.2401 17.9473 15.3673 18 15.4999 18C15.6325 18 15.7597 17.9473 15.8535 17.8536C15.9472 17.7598 15.9999 17.6326 15.9999 17.5V9.5C15.9999 9.36739 15.9472 9.24021 15.8535 9.14645C15.7597 9.05268 15.6325 9 15.4999 9ZM7.4999 11C7.36729 11 7.24011 11.0527 7.14635 11.1464C7.05258 11.2402 6.9999 11.3674 6.9999 11.5V17.5C6.9999 17.6326 7.05258 17.7598 7.14635 17.8536C7.24011 17.9473 7.36729 18 7.4999 18C7.63251 18 7.75968 17.9473 7.85345 17.8536C7.94722 17.7598 7.9999 17.6326 7.9999 17.5V11.5C7.9999 11.3674 7.94722 11.2402 7.85345 11.1464C7.75968 11.0527 7.63251 11 7.4999 11ZM10.9999 13.5C10.9999 13.3674 11.0526 13.2402 11.1463 13.1464C11.2401 13.0527 11.3673 13 11.4999 13C11.6325 13 11.7597 13.0527 11.8535 13.1464C11.9472 13.2402 11.9999 13.3674 11.9999 13.5V17.5C11.9999 17.6326 11.9472 17.7598 11.8535 17.8536C11.7597 17.9473 11.6325 18 11.4999 18C11.3673 18 11.2401 17.9473 11.1463 17.8536C11.0526 17.7598 10.9999 17.6326 10.9999 17.5V13.5ZM2.9999 14.5C2.9999 14.3674 3.05258 14.2402 3.14635 14.1464C3.24011 14.0527 3.36729 14 3.4999 14C3.63251 14 3.75968 14.0527 3.85345 14.1464C3.94722 14.2402 3.9999 14.3674 3.9999 14.5V17.5C3.9999 17.6326 3.94722 17.7598 3.85345 17.8536C3.75968 17.9473 3.63251 18 3.4999 18C3.36729 18 3.24011 17.9473 3.14635 17.8536C3.05258 17.7598 2.9999 17.6326 2.9999 17.5V14.5Z" fill="black"/>
</svg>
